<mxfile host="app.diagrams.net" modified="2021-03-29T04:10:57.039Z" agent="5.0 (Macintosh; Intel Mac OS X 10_15_7) AppleWebKit/537.36 (KHTML, like Gecko) Chrome/89.0.4389.82 Safari/537.36" etag="c24x27VbXKyquEipDff-" version="14.5.3" type="github">
  <diagram id="CQXvqj19SIkNWi7N2aEj" name="tourist">
    <mxGraphModel dx="2253" dy="803" grid="1" gridSize="10" guides="1" tooltips="1" connect="1" arrows="1" fold="1" page="1" pageScale="1" pageWidth="827" pageHeight="1169" math="0" shadow="0">
      <root>
        <mxCell id="0" />
        <mxCell id="1" parent="0" />
        <mxCell id="wjUkhtjCSzYIzdJLlJuu-33" style="edgeStyle=orthogonalEdgeStyle;rounded=0;orthogonalLoop=1;jettySize=auto;html=1;entryX=0;entryY=0.5;entryDx=0;entryDy=0;entryPerimeter=0;" edge="1" parent="1" source="wjUkhtjCSzYIzdJLlJuu-2" target="wjUkhtjCSzYIzdJLlJuu-32">
          <mxGeometry relative="1" as="geometry">
            <mxPoint x="300" y="170" as="targetPoint" />
          </mxGeometry>
        </mxCell>
        <mxCell id="wjUkhtjCSzYIzdJLlJuu-2" value="找尋主要景點" style="rounded=0;whiteSpace=wrap;html=1;" vertex="1" parent="1">
          <mxGeometry x="150" y="140" width="120" height="60" as="geometry" />
        </mxCell>
        <mxCell id="wjUkhtjCSzYIzdJLlJuu-35" style="edgeStyle=orthogonalEdgeStyle;rounded=0;orthogonalLoop=1;jettySize=auto;html=1;entryX=0;entryY=0.5;entryDx=0;entryDy=0;entryPerimeter=0;" edge="1" parent="1" source="wjUkhtjCSzYIzdJLlJuu-3" target="wjUkhtjCSzYIzdJLlJuu-34">
          <mxGeometry relative="1" as="geometry" />
        </mxCell>
        <mxCell id="wjUkhtjCSzYIzdJLlJuu-3" value="規劃停留時間" style="rounded=0;whiteSpace=wrap;html=1;" vertex="1" parent="1">
          <mxGeometry x="150" y="300" width="120" height="60" as="geometry" />
        </mxCell>
        <mxCell id="wjUkhtjCSzYIzdJLlJuu-38" style="edgeStyle=orthogonalEdgeStyle;rounded=0;orthogonalLoop=1;jettySize=auto;html=1;entryX=1;entryY=0.5;entryDx=0;entryDy=0;entryPerimeter=0;" edge="1" parent="1" source="wjUkhtjCSzYIzdJLlJuu-4" target="wjUkhtjCSzYIzdJLlJuu-36">
          <mxGeometry relative="1" as="geometry" />
        </mxCell>
        <mxCell id="wjUkhtjCSzYIzdJLlJuu-4" value="規劃交通時間與方式" style="rounded=0;whiteSpace=wrap;html=1;" vertex="1" parent="1">
          <mxGeometry x="620" y="300" width="120" height="60" as="geometry" />
        </mxCell>
        <mxCell id="wjUkhtjCSzYIzdJLlJuu-31" style="edgeStyle=orthogonalEdgeStyle;rounded=0;orthogonalLoop=1;jettySize=auto;html=1;entryX=1;entryY=0.5;entryDx=0;entryDy=0;entryPerimeter=0;" edge="1" parent="1" source="wjUkhtjCSzYIzdJLlJuu-5" target="wjUkhtjCSzYIzdJLlJuu-30">
          <mxGeometry relative="1" as="geometry" />
        </mxCell>
        <mxCell id="wjUkhtjCSzYIzdJLlJuu-5" value="找尋次要景點" style="rounded=0;whiteSpace=wrap;html=1;" vertex="1" parent="1">
          <mxGeometry x="620" y="140" width="120" height="60" as="geometry" />
        </mxCell>
        <mxCell id="wjUkhtjCSzYIzdJLlJuu-9" value="" style="group" vertex="1" connectable="0" parent="1">
          <mxGeometry x="110" y="10" width="140" height="100" as="geometry" />
        </mxCell>
        <mxCell id="wjUkhtjCSzYIzdJLlJuu-6" value="協助搜尋資料" style="html=1;whiteSpace=wrap;rounded=1;dropTarget=0;" vertex="1" parent="wjUkhtjCSzYIzdJLlJuu-9">
          <mxGeometry width="120" height="80" as="geometry" />
        </mxCell>
        <mxCell id="wjUkhtjCSzYIzdJLlJuu-8" value="" style="shape=mxgraph.bpmn.shape;html=1;verticalLabelPosition=bottom;labelBackgroundColor=#ffffff;verticalAlign=top;align=center;perimeter=ellipsePerimeter;outlineConnect=0;outline=standard;symbol=star;" vertex="1" parent="wjUkhtjCSzYIzdJLlJuu-9">
          <mxGeometry x="100" y="60" width="30" height="30" as="geometry" />
        </mxCell>
        <mxCell id="wjUkhtjCSzYIzdJLlJuu-10" value="" style="group;fillColor=none;" vertex="1" connectable="0" parent="1">
          <mxGeometry x="270" y="10" width="140" height="100" as="geometry" />
        </mxCell>
        <mxCell id="wjUkhtjCSzYIzdJLlJuu-11" value="協助統整資料" style="html=1;whiteSpace=wrap;rounded=1;dropTarget=0;gradientColor=#ffd966;fillColor=#fff2cc;strokeColor=#d6b656;" vertex="1" parent="wjUkhtjCSzYIzdJLlJuu-10">
          <mxGeometry width="120" height="80" as="geometry" />
        </mxCell>
        <mxCell id="wjUkhtjCSzYIzdJLlJuu-12" value="" style="shape=mxgraph.bpmn.shape;html=1;verticalLabelPosition=bottom;labelBackgroundColor=#ffffff;verticalAlign=top;align=center;perimeter=ellipsePerimeter;outlineConnect=0;outline=standard;symbol=star;" vertex="1" parent="wjUkhtjCSzYIzdJLlJuu-10">
          <mxGeometry x="100" y="60" width="30" height="30" as="geometry" />
        </mxCell>
        <mxCell id="wjUkhtjCSzYIzdJLlJuu-13" value="" style="group;fillColor=none;" vertex="1" connectable="0" parent="1">
          <mxGeometry x="430" y="10" width="140" height="100" as="geometry" />
        </mxCell>
        <mxCell id="wjUkhtjCSzYIzdJLlJuu-14" value="協助留存資料" style="html=1;whiteSpace=wrap;rounded=1;dropTarget=0;gradientColor=#ffd966;fillColor=#fff2cc;strokeColor=#d6b656;" vertex="1" parent="wjUkhtjCSzYIzdJLlJuu-13">
          <mxGeometry width="120" height="80" as="geometry" />
        </mxCell>
        <mxCell id="wjUkhtjCSzYIzdJLlJuu-15" value="" style="shape=mxgraph.bpmn.shape;html=1;verticalLabelPosition=bottom;labelBackgroundColor=#ffffff;verticalAlign=top;align=center;perimeter=ellipsePerimeter;outlineConnect=0;outline=standard;symbol=star;" vertex="1" parent="wjUkhtjCSzYIzdJLlJuu-13">
          <mxGeometry x="100" y="60" width="30" height="30" as="geometry" />
        </mxCell>
        <mxCell id="wjUkhtjCSzYIzdJLlJuu-41" style="edgeStyle=orthogonalEdgeStyle;rounded=0;orthogonalLoop=1;jettySize=auto;html=1;entryX=0;entryY=0.5;entryDx=0;entryDy=0;entryPerimeter=0;" edge="1" parent="1" source="wjUkhtjCSzYIzdJLlJuu-26" target="wjUkhtjCSzYIzdJLlJuu-40">
          <mxGeometry relative="1" as="geometry" />
        </mxCell>
        <mxCell id="wjUkhtjCSzYIzdJLlJuu-43" style="edgeStyle=orthogonalEdgeStyle;rounded=0;orthogonalLoop=1;jettySize=auto;html=1;entryX=0;entryY=0.5;entryDx=0;entryDy=0;entryPerimeter=0;" edge="1" parent="1" source="wjUkhtjCSzYIzdJLlJuu-26" target="wjUkhtjCSzYIzdJLlJuu-42">
          <mxGeometry relative="1" as="geometry" />
        </mxCell>
        <mxCell id="wjUkhtjCSzYIzdJLlJuu-53" style="edgeStyle=orthogonalEdgeStyle;rounded=0;orthogonalLoop=1;jettySize=auto;html=1;entryX=0;entryY=0.5;entryDx=0;entryDy=0;entryPerimeter=0;" edge="1" parent="1" source="wjUkhtjCSzYIzdJLlJuu-26" target="wjUkhtjCSzYIzdJLlJuu-52">
          <mxGeometry relative="1" as="geometry">
            <Array as="points">
              <mxPoint x="294" y="470" />
              <mxPoint x="294" y="570" />
            </Array>
          </mxGeometry>
        </mxCell>
        <mxCell id="wjUkhtjCSzYIzdJLlJuu-26" value="整理資訊" style="rounded=0;whiteSpace=wrap;html=1;" vertex="1" parent="1">
          <mxGeometry x="154" y="440" width="120" height="60" as="geometry" />
        </mxCell>
        <mxCell id="wjUkhtjCSzYIzdJLlJuu-45" value="" style="edgeStyle=orthogonalEdgeStyle;rounded=0;orthogonalLoop=1;jettySize=auto;html=1;" edge="1" parent="1" source="wjUkhtjCSzYIzdJLlJuu-27" target="wjUkhtjCSzYIzdJLlJuu-44">
          <mxGeometry relative="1" as="geometry" />
        </mxCell>
        <mxCell id="wjUkhtjCSzYIzdJLlJuu-27" value="保存資訊" style="rounded=0;whiteSpace=wrap;html=1;" vertex="1" parent="1">
          <mxGeometry x="624" y="440" width="120" height="60" as="geometry" />
        </mxCell>
        <mxCell id="wjUkhtjCSzYIzdJLlJuu-30" value="在主要景點附近的" style="strokeWidth=2;html=1;shape=mxgraph.flowchart.start_2;whiteSpace=wrap;gradientColor=#b3b3b3;fillColor=#f5f5f5;strokeColor=#666666;" vertex="1" parent="1">
          <mxGeometry x="540" y="150" width="40" height="40" as="geometry" />
        </mxCell>
        <mxCell id="wjUkhtjCSzYIzdJLlJuu-32" value="最近熱門的" style="strokeWidth=2;html=1;shape=mxgraph.flowchart.start_2;whiteSpace=wrap;gradientColor=#b3b3b3;fillColor=#f5f5f5;strokeColor=#666666;" vertex="1" parent="1">
          <mxGeometry x="310" y="150" width="40" height="40" as="geometry" />
        </mxCell>
        <mxCell id="wjUkhtjCSzYIzdJLlJuu-34" value="平均停留時間" style="strokeWidth=2;html=1;shape=mxgraph.flowchart.start_2;whiteSpace=wrap;gradientColor=#b3b3b3;fillColor=#f5f5f5;strokeColor=#666666;" vertex="1" parent="1">
          <mxGeometry x="310" y="310" width="40" height="40" as="geometry" />
        </mxCell>
        <mxCell id="wjUkhtjCSzYIzdJLlJuu-39" style="edgeStyle=orthogonalEdgeStyle;rounded=0;orthogonalLoop=1;jettySize=auto;html=1;exitX=0.5;exitY=1;exitDx=0;exitDy=0;exitPerimeter=0;entryX=0.5;entryY=0;entryDx=0;entryDy=0;entryPerimeter=0;" edge="1" parent="1" source="wjUkhtjCSzYIzdJLlJuu-36" target="wjUkhtjCSzYIzdJLlJuu-37">
          <mxGeometry relative="1" as="geometry" />
        </mxCell>
        <mxCell id="wjUkhtjCSzYIzdJLlJuu-36" value="選擇交通方式" style="strokeWidth=2;html=1;shape=mxgraph.flowchart.start_2;whiteSpace=wrap;gradientColor=#b3b3b3;fillColor=#f5f5f5;strokeColor=#666666;" vertex="1" parent="1">
          <mxGeometry x="540" y="280" width="40" height="40" as="geometry" />
        </mxCell>
        <mxCell id="wjUkhtjCSzYIzdJLlJuu-37" value="紀錄交通時間" style="strokeWidth=2;html=1;shape=mxgraph.flowchart.start_2;whiteSpace=wrap;gradientColor=#ffd966;fillColor=#fff2cc;strokeColor=#d6b656;" vertex="1" parent="1">
          <mxGeometry x="540" y="350" width="40" height="40" as="geometry" />
        </mxCell>
        <mxCell id="wjUkhtjCSzYIzdJLlJuu-51" style="edgeStyle=orthogonalEdgeStyle;rounded=0;orthogonalLoop=1;jettySize=auto;html=1;" edge="1" parent="1" source="wjUkhtjCSzYIzdJLlJuu-40" target="wjUkhtjCSzYIzdJLlJuu-50">
          <mxGeometry relative="1" as="geometry" />
        </mxCell>
        <mxCell id="wjUkhtjCSzYIzdJLlJuu-54" style="edgeStyle=orthogonalEdgeStyle;rounded=0;orthogonalLoop=1;jettySize=auto;html=1;entryX=0.5;entryY=1;entryDx=0;entryDy=0;strokeColor=#999999;" edge="1" parent="1" source="wjUkhtjCSzYIzdJLlJuu-40" target="wjUkhtjCSzYIzdJLlJuu-55">
          <mxGeometry relative="1" as="geometry">
            <mxPoint x="-50" y="380" as="targetPoint" />
            <Array as="points">
              <mxPoint x="330" y="390" />
              <mxPoint x="-110" y="390" />
            </Array>
          </mxGeometry>
        </mxCell>
        <mxCell id="wjUkhtjCSzYIzdJLlJuu-40" value="紀錄&lt;br&gt;景點&lt;br&gt;位置" style="strokeWidth=2;html=1;shape=mxgraph.flowchart.start_2;whiteSpace=wrap;gradientColor=#ffd966;fillColor=#fff2cc;strokeColor=#d6b656;" vertex="1" parent="1">
          <mxGeometry x="310" y="410" width="40" height="40" as="geometry" />
        </mxCell>
        <mxCell id="wjUkhtjCSzYIzdJLlJuu-42" value="行程&lt;br&gt;清單" style="strokeWidth=2;html=1;shape=mxgraph.flowchart.start_2;whiteSpace=wrap;gradientColor=#ffd966;fillColor=#fff2cc;strokeColor=#d6b656;" vertex="1" parent="1">
          <mxGeometry x="310" y="480" width="40" height="40" as="geometry" />
        </mxCell>
        <mxCell id="wjUkhtjCSzYIzdJLlJuu-44" value="分享&lt;br&gt;行程" style="strokeWidth=2;html=1;shape=mxgraph.flowchart.start_2;whiteSpace=wrap;gradientColor=#ffd966;fillColor=#fff2cc;strokeColor=#d6b656;" vertex="1" parent="1">
          <mxGeometry x="540" y="450" width="40" height="40" as="geometry" />
        </mxCell>
        <mxCell id="wjUkhtjCSzYIzdJLlJuu-46" value="紀錄停留時間" style="strokeWidth=2;html=1;shape=mxgraph.flowchart.start_2;whiteSpace=wrap;gradientColor=#ffd966;fillColor=#fff2cc;strokeColor=#d6b656;" vertex="1" parent="1">
          <mxGeometry x="380" y="310" width="40" height="40" as="geometry" />
        </mxCell>
        <mxCell id="wjUkhtjCSzYIzdJLlJuu-47" style="edgeStyle=orthogonalEdgeStyle;rounded=0;orthogonalLoop=1;jettySize=auto;html=1;entryX=0;entryY=0.5;entryDx=0;entryDy=0;entryPerimeter=0;exitX=1;exitY=0.5;exitDx=0;exitDy=0;exitPerimeter=0;" edge="1" parent="1" source="wjUkhtjCSzYIzdJLlJuu-34" target="wjUkhtjCSzYIzdJLlJuu-46">
          <mxGeometry relative="1" as="geometry">
            <mxPoint x="280" y="340" as="sourcePoint" />
            <mxPoint x="320" y="340" as="targetPoint" />
          </mxGeometry>
        </mxCell>
        <mxCell id="wjUkhtjCSzYIzdJLlJuu-48" value="" style="endArrow=none;dashed=1;html=1;dashPattern=1 3;strokeWidth=2;entryX=0;entryY=0.5;entryDx=0;entryDy=0;entryPerimeter=0;exitX=1;exitY=0.5;exitDx=0;exitDy=0;exitPerimeter=0;gradientColor=#b3b3b3;fillColor=#f5f5f5;strokeColor=#666666;" edge="1" parent="1" source="wjUkhtjCSzYIzdJLlJuu-32" target="wjUkhtjCSzYIzdJLlJuu-44">
          <mxGeometry width="50" height="50" relative="1" as="geometry">
            <mxPoint x="390" y="640" as="sourcePoint" />
            <mxPoint x="440" y="590" as="targetPoint" />
          </mxGeometry>
        </mxCell>
        <mxCell id="wjUkhtjCSzYIzdJLlJuu-50" value="交通路線圖" style="strokeWidth=2;html=1;shape=mxgraph.flowchart.start_2;whiteSpace=wrap;gradientColor=#b3b3b3;fillColor=#f5f5f5;strokeColor=#666666;" vertex="1" parent="1">
          <mxGeometry x="380" y="410" width="40" height="40" as="geometry" />
        </mxCell>
        <mxCell id="wjUkhtjCSzYIzdJLlJuu-52" value="紀錄&lt;br&gt;景點&lt;br&gt;備註" style="strokeWidth=2;html=1;shape=mxgraph.flowchart.start_2;whiteSpace=wrap;gradientColor=#ffd966;fillColor=#fff2cc;strokeColor=#d6b656;" vertex="1" parent="1">
          <mxGeometry x="310" y="550" width="40" height="40" as="geometry" />
        </mxCell>
        <mxCell id="wjUkhtjCSzYIzdJLlJuu-55" value="&lt;font face=&quot;monospace&quot;&gt;&lt;span style=&quot;font-size: 13px&quot;&gt;&amp;lt;iframe width=&quot;600&quot; height=&quot;450&quot; style=&quot;border:0&quot; loading=&quot;lazy&quot; allowfullscreen src=&quot;https://www.google.com/maps/embed/v1/place?q=%E5%8F%B0%E5%8C%97%E8%BB%8A%E7%AB%99&amp;amp;key=AIzaSyC6iDHgmq9N-fHS7XwBi-MGpOzn-ZzT7cc&quot;&amp;gt;&amp;lt;/iframe&amp;gt;&lt;/span&gt;&lt;/font&gt;" style="rounded=0;whiteSpace=wrap;html=1;strokeColor=#666666;gradientColor=#b3b3b3;fillColor=#f5f5f5;" vertex="1" parent="1">
          <mxGeometry x="-360" y="240" width="500" height="130" as="geometry" />
        </mxCell>
        <mxCell id="wjUkhtjCSzYIzdJLlJuu-60" style="edgeStyle=orthogonalEdgeStyle;rounded=0;orthogonalLoop=1;jettySize=auto;html=1;entryX=0;entryY=0.5;entryDx=0;entryDy=0;entryPerimeter=0;" edge="1" parent="1" source="wjUkhtjCSzYIzdJLlJuu-56" target="wjUkhtjCSzYIzdJLlJuu-58">
          <mxGeometry relative="1" as="geometry" />
        </mxCell>
        <mxCell id="wjUkhtjCSzYIzdJLlJuu-56" value="規劃住宿時間與方式" style="rounded=0;whiteSpace=wrap;html=1;" vertex="1" parent="1">
          <mxGeometry x="150" y="640" width="120" height="60" as="geometry" />
        </mxCell>
        <mxCell id="wjUkhtjCSzYIzdJLlJuu-58" value="選擇&lt;br&gt;住宿" style="strokeWidth=2;html=1;shape=mxgraph.flowchart.start_2;whiteSpace=wrap;gradientColor=#b3b3b3;fillColor=#f5f5f5;strokeColor=#666666;" vertex="1" parent="1">
          <mxGeometry x="310" y="650" width="40" height="40" as="geometry" />
        </mxCell>
      </root>
    </mxGraphModel>
  </diagram>
</mxfile>
